<svg width="125px" height="32px" viewBox="0 0 125 32" version="1.1" xmlns="http://www.w3.org/2000/svg" xmlns:xlink="http://www.w3.org/1999/xlink">
    <defs>
        <path d="M12,23 C18.627417,23 24,17.8512746 24,11.5 C24,5.14872538 18.627417,0 12,0 C5.372583,0 0,5.14872538 0,11.5 C0,17.8512746 5.372583,23 12,23 Z" id="path-1"></path>
    </defs>
    <g id="Activity-view" stroke="none" stroke-width="1" fill="none" fill-rule="evenodd">
        <g id="Wallet---Activity-(BTC)-Copy-7" transform="translate(-221.000000, -287.000000)">
            <g id="Group-2" transform="translate(221.000000, 287.000000)">
                <rect id="Rectangle" fill="#2FCF6E" opacity="0.100000001" x="0" y="0" width="125" height="32" rx="16"></rect>
                <text id="Bitcoin-Cash" font-family="Helvetica" font-size="14" font-weight="normal" fill="#000000">
                    <tspan x="34" y="20">Bitcoin Cash</tspan>
                </text>
                <g id="Currency/Large/Bitcoin-Cash-(alt)" transform="translate(6.000000, 5.000000)">
                    <g id="item-ico-backup" stroke-width="1">
                        <mask id="mask-2" fill="white">
                            <use xlink:href="#path-1"></use>
                        </mask>
                        <use id="Mask" fill="#2FCF6E" xlink:href="#path-1"></use>
                    </g>
                    <path d="M14.8503248,10.1452824 C14.5263494,11.3955541 12.3972186,10.7913089 11.703035,10.6368449 L12.2894585,8.41737522 C12.9679994,8.57183917 15.1895953,8.83898584 14.8503248,10.1452824 L14.8503248,10.1452824 Z M14.5107068,13.72739 C14.1561413,15.103955 11.5949273,14.3876601 10.7773411,14.2050255 L11.4099971,11.7608234 C12.2428783,11.943458 14.8809148,12.2805566 14.5107068,13.72739 Z M17.2568509,10.1452824 C17.4574238,8.79657156 16.331157,8.09420372 14.7884497,7.61656827 L15.2667654,5.79053851 L14.0480336,5.52370837 L13.5853605,7.30764038 C13.261385,7.23737194 12.9374095,7.1671035 12.613434,7.11107867 L13.0761071,5.32683014 L11.8420803,5.06 L11.3637646,6.88634628 C11.1013166,6.83000493 10.8392163,6.78790717 10.5767683,6.73156581 L8.89536333,6.36661308 L8.58668282,7.54661636 C8.58668282,7.54661636 9.49708176,7.72893447 9.46614418,7.74317807 C9.95975491,7.85554426 10.05222,8.15054508 10.036925,8.37527747 L9.49708176,10.4542103 C9.52767172,10.4684539 9.57425189,10.4684539 9.62048444,10.496308 C9.57425189,10.482381 9.54331431,10.482381 9.49708176,10.4684539 L8.75631805,13.3760478 C8.69479052,13.5165847 8.54045026,13.7131464 8.20117979,13.6431945 C8.21647477,13.6571216 7.30642345,13.4463163 7.30642345,13.4463163 L6.72,14.7247587 L8.30893988,15.0618572 C8.60232541,15.1321257 8.89536333,15.1881505 9.17310627,15.2584189 L8.69479052,17.0986923 L9.91352236,17.3655224 L10.3918381,15.5394927 C10.7311086,15.6236882 11.0550841,15.6939566 11.3637646,15.7642251 L10.8854488,17.5763278 L12.1041807,17.8431579 L12.5824964,16.0032011 C14.665047,16.3402996 16.2230493,16.1855192 16.8557053,14.4579285 C17.3649587,13.081047 16.8094728,12.2944837 15.6988486,11.7747504 C16.5164349,11.6060429 17.1025107,11.128724 17.2568509,10.1452824 L17.2568509,10.1452824 Z" id="Shape" fill="#FFFFFF" transform="translate(12.000000, 11.451579) rotate(-32.000000) translate(-12.000000, -11.451579) "></path>
                </g>
            </g>
        </g>
    </g>
</svg>