<svg width="87px" height="32px" viewBox="0 0 87 32" version="1.1" xmlns="http://www.w3.org/2000/svg" xmlns:xlink="http://www.w3.org/1999/xlink">
    <defs>
        <path d="M12,23 C18.627417,23 24,17.8512746 24,11.5 C24,5.14872538 18.627417,0 12,0 C5.372583,0 0,5.14872538 0,11.5 C0,17.8512746 5.372583,23 12,23 Z" id="path-1"></path>
    </defs>
    <g id="Activity-view" stroke="none" stroke-width="1" fill="none" fill-rule="evenodd">
        <g id="Wallet---Activity-(BTC)-Copy-6" transform="translate(-249.000000, -286.000000)">
            <g id="Group-2" transform="translate(249.000000, 286.000000)">
                <rect id="Rectangle" fill-opacity="0.12423514" fill="#F7931A" x="0" y="0" width="87" height="32" rx="16"></rect>
                <text id="Bitcoin" font-family="Helvetica" font-size="14" font-weight="normal" fill="#000000">
                    <tspan x="34" y="20">Bitcoin</tspan>
                </text>
                <g id="Currency/Large/Bitcoin-(alt)" transform="translate(6.000000, 5.000000)">
                    <g id="Currency/Large/Bitcoin">
                        <g id="item-ico-backup">
                            <mask id="mask-2" fill="white">
                                <use xlink:href="#path-1"></use>
                            </mask>
                            <use id="Mask" fill="#F7931A" xlink:href="#path-1"></use>
                        </g>
                        <g id="Group" transform="translate(1.920000, 1.840000)" fill="#FFFFFF">
                            <g id="Shape-2" transform="translate(4.800000, 3.220000)">
                                <path d="M8.13032485,5.12380726 C7.80634936,6.38355074 5.67721858,5.77472788 4.98303505,5.61909375 L5.56945849,3.38280988 C6.24799944,3.53844402 8.46959532,3.80761452 8.13032485,5.12380726 L8.13032485,5.12380726 Z M7.79070677,8.73305205 C7.43614131,10.1200456 4.87492735,9.39832417 4.05734113,9.21430595 L4.68999713,6.75158718 C5.52287833,6.93560541 8.16091481,7.27525776 7.79070677,8.73305205 Z M10.5368509,5.12380726 C10.7374238,3.76487892 9.61115703,3.05719012 8.0684497,2.57593622 L8.54676545,0.736072897 L7.32803361,0.467221314 L6.86536046,2.26466795 C6.54138497,2.19386718 6.21740948,2.12306641 5.89343399,2.06661714 L6.35610714,0.268851582 L5.12208032,0 L4.64376458,1.84018224 C4.38131662,1.78341405 4.11921628,1.74099738 3.85676832,1.68422919 L2.17536333,1.31651166 L1.86668282,2.50545437 C1.86668282,2.50545437 2.77708176,2.68915367 2.74614418,2.70350518 C3.23975491,2.81672263 3.33222002,3.1139583 3.31692504,3.34039321 L2.77708176,5.43507552 C2.80767172,5.44942703 2.85425189,5.44942703 2.90048444,5.4774922 C2.85425189,5.46345961 2.82331431,5.46345961 2.77708176,5.44942703 L2.03631805,8.37904819 C1.97479052,8.52064973 1.82045026,8.71870054 1.48117979,8.64821869 C1.49647477,8.66225128 0.586423448,8.44984896 0.586423448,8.44984896 L0,9.73797653 L1.58893988,10.0776289 C1.88232541,10.1484297 2.17536333,10.2048789 2.45310627,10.2756797 L1.97479052,12.1298945 L3.19352236,12.3987461 L3.6718381,10.5588828 C4.01110857,10.6437161 4.33508407,10.7145169 4.64376458,10.7853177 L4.16544883,12.6111484 L5.38418067,12.88 L5.86249641,11.0261041 C7.94504702,11.3657565 9.50304933,11.2098034 10.1357053,9.46912494 C10.6449587,8.08181251 10.0894728,7.28929035 8.97884864,6.76561977 C9.79643486,6.59563413 10.3825107,6.11469915 10.5368509,5.12380726 L10.5368509,5.12380726 Z" id="Shape"></path>
                            </g>
                        </g>
                    </g>
                </g>
            </g>
        </g>
    </g>
</svg>