<svg width="107px" height="32px" viewBox="0 0 107 32" version="1.1" xmlns="http://www.w3.org/2000/svg" xmlns:xlink="http://www.w3.org/1999/xlink">
    <defs>
        <path d="M12,23 C18.627417,23 24,17.8512746 24,11.5 C24,5.14872538 18.627417,0 12,0 C5.372583,0 0,5.14872538 0,11.5 C0,17.8512746 5.372583,23 12,23 Z" id="path-1"></path>
    </defs>
    <g id="Activity-view" stroke="none" stroke-width="1" fill="none" fill-rule="evenodd">
        <g id="Wallet---Activity-(ETH)-" transform="translate(-237.000000, -317.000000)">
            <g id="Group-2" transform="translate(237.000000, 317.000000)">
                <rect id="Rectangle" fill="#616792" opacity="0.100000001" x="0" y="0" width="107" height="32" rx="16"></rect>
                <text id="Ethereum" font-family="Helvetica" font-size="14" font-weight="normal" fill="#000000">
                    <tspan x="34" y="20">Ethereum</tspan>
                </text>
                <g id="Currency/Large/Ethereum-(alt)" transform="translate(6.000000, 5.000000)">
                    <g id="item-ico-backup">
                        <mask id="mask-2" fill="white">
                            <use xlink:href="#path-1"></use>
                        </mask>
                        <use id="Mask" fill="#151C32" xlink:href="#path-1"></use>
                    </g>
                    <g id="path0" transform="translate(7.200000, 3.680000)" fill="#616792">
                        <path d="M4.97119151,0.376845109 C4.93635478,0.457590233 3.88365002,2.16946173 2.6318476,4.18101786 C1.38004517,6.19253238 0.345424578,7.86471771 0.332623908,7.89699912 C0.316000219,7.93897327 0.996068026,8.34868926 2.71724267,9.33360504 L5.12518614,10.7114721 L7.53244233,9.33285625 C9.26186439,8.34240769 9.93312636,7.93755888 9.91633085,7.89512713 C9.82934644,7.67556363 5.14825312,0.229997976 5.09717931,0.229997976 C5.06272918,0.229997976 5.00602823,0.296058386 4.97119151,0.376845109 M0.338336958,8.88794687 C0.431120338,9.04157477 5.10529785,15.4105804 5.1248425,15.409998 C5.15714486,15.4090412 9.93600437,8.86906058 9.91758701,8.85113109 C9.90009376,8.83428319 5.43321837,11.3821018 5.24687842,11.5151794 L5.13266036,11.5967981 L2.81990576,10.2744251 C1.5478714,9.54713658 0.460158099,8.92272427 0.402769861,8.88690688 C0.307623942,8.82754403 0.301910891,8.82762723 0.338336958,8.88794687" id="Shape"></path>
                    </g>
                </g>
            </g>
        </g>
    </g>
</svg>