<svg width="51px" height="51px" viewBox="0 0 51 51" version="1.1" xmlns="http://www.w3.org/2000/svg" xmlns:xlink="http://www.w3.org/1999/xlink">
    <g id="Activity-view" stroke="none" stroke-width="1" fill="none" fill-rule="evenodd">
        <g id="Send---Sent--(ETH)-" transform="translate(-304.000000, -105.000000)">
            <rect fill="#FFFFFF" x="0" y="0" width="375" height="864"></rect>
            <g id="Large-(50px)/Check" transform="translate(304.000000, 105.000000)">
                <g id="Oval-87-+-bitpay-logo-grayscale">
                    <path d="M25.5,51 C39.5832611,51 51,39.5832611 51,25.5 C51,11.4167389 39.5832611,0 25.5,0 C11.4167389,0 0,11.4167389 0,25.5 C0,39.5832611 11.4167389,51 25.5,51 Z" id="Oval-87" fill="#2FCFA4"></path>
                    <path d="M20.5514754,32.6738265 L14.5160656,26.5330102 L12.24,28.8488265 L19.4006557,36.1345408 C19.7203279,36.4597959 20.155082,36.72 20.5386885,36.72 C20.9222951,36.72 21.3442623,36.4597959 21.6639344,36.147551 L38.76,18.6618367 L36.5095082,16.32 L20.5514754,32.6738265 Z" id="Shape" fill="#FFFFFF"></path>
                </g>
            </g>
        </g>
    </g>
</svg>