<svg width="24px" height="24px" viewBox="0 0 24 24" version="1.1" xmlns="http://www.w3.org/2000/svg" xmlns:xlink="http://www.w3.org/1999/xlink">
    <defs>
        <rect id="path-1" x="0" y="0" width="24" height="24" rx="4"></rect>
    </defs>
    <g id="Activity-view" stroke="none" stroke-width="1" fill="none" fill-rule="evenodd">
        <g id="Wallet---Activity-(ETH)-" transform="translate(-284.000000, -61.000000)">
            <g id="barcode-qr" transform="translate(284.000000, 61.000000)">
                <mask id="mask-2" fill="white">
                    <use xlink:href="#path-1"></use>
                </mask>
                <g id="Mask"></g>
                <g mask="url(#mask-2)" fill="#F6F7FC" fill-opacity="0.361505682" fill-rule="nonzero">
                    <path d="M9.42857143,11 L1.57142857,11 C0.628571429,11 0,10.3714286 0,9.42857143 L0,1.57142857 C0,0.628571429 0.628571429,0 1.57142857,0 L9.42857143,0 C10.3714286,0 11,0.628571429 11,1.57142857 L11,9.42857143 C11,10.3714286 10.3714286,11 9.42857143,11 Z M3.14285714,7.85714286 L7.85714286,7.85714286 L7.85714286,3.14285714 L3.14285714,3.14285714 L3.14285714,7.85714286 Z" id="Shape"></path>
                    <path d="M9.42857143,24 L1.57142857,24 C0.628571429,24 0,23.3714286 0,22.4285714 L0,14.5714286 C0,13.6285714 0.628571429,13 1.57142857,13 L9.42857143,13 C10.3714286,13 11,13.6285714 11,14.5714286 L11,22.4285714 C11,23.3714286 10.3714286,24 9.42857143,24 Z M3.14285714,20.8571429 L7.85714286,20.8571429 L7.85714286,16.1428571 L3.14285714,16.1428571 L3.14285714,20.8571429 Z" id="Shape"></path>
                    <path d="M22.4285714,11 L14.5714286,11 C13.6285714,11 13,10.3714286 13,9.42857143 L13,1.57142857 C13,0.628571429 13.6285714,0 14.5714286,0 L22.4285714,0 C23.3714286,0 24,0.628571429 24,1.57142857 L24,9.42857143 C24,10.3714286 23.3714286,11 22.4285714,11 Z M16.1428571,7.85714286 L20.8571429,7.85714286 L20.8571429,3.14285714 L16.1428571,3.14285714 L16.1428571,7.85714286 Z" id="Shape"></path>
                    <rect id="Rectangle" x="4" y="4" width="2" height="2"></rect>
                    <rect id="Rectangle" x="4" y="18" width="2" height="2"></rect>
                    <rect id="Rectangle" opacity="0.5" x="13" y="21" width="11" height="3"></rect>
                    <path d="M24,19 L20.8,19 L20.8,16 L16,16 L16,13 L22.4,13 C23.36,13 24,13.6 24,14.5 L24,19 Z" id="Path" opacity="0.5"></path>
                    <rect id="Rectangle" opacity="0.5" x="18" y="18" width="2" height="2"></rect>
                    <rect id="Rectangle" x="18" y="4" width="2" height="2"></rect>
                </g>
            </g>
        </g>
    </g>
</svg>