
<svg width="20px" height="20px" viewBox="0 0 20 20" version="1.1" xmlns="http://www.w3.org/2000/svg" xmlns:xlink="http://www.w3.org/1999/xlink">
    <g id="Activity-view" stroke="none" stroke-width="1" fill="none" fill-rule="evenodd">
        <g id="Wallet---Activity-(ETH)-" transform="translate(-341.000000, -63.000000)">
            <rect fill="#F6F7FC" x="0" y="0" width="375" height="864"></rect>
            <g id="Wallet/Small/Settings-2-" opacity="0.573707217" transform="translate(341.000000, 63.000000)" fill="#EBEDF8">
                <g id="options" transform="translate(0.000000, 0.000000)">
                    <path d="M9.33333333,0.333333333 C9.33333333,0.149238417 9.48257175,0 9.66666667,0 C9.85076158,0 10,0.149238417 10,0.333333333 L10,2.66666667 C10,2.85076158 9.85076158,3 9.66666667,3 C9.48257175,3 9.33333333,2.85076158 9.33333333,2.66666667 L9.33333333,0.333333333 Z M10,19.6666667 C10,19.8507616 9.85076158,20 9.66666667,20 C9.48257175,20 9.33333333,19.8507616 9.33333333,19.6666667 L9.33333333,8.33333333 L7,8.33333333 C6.81590508,8.33333333 6.66666667,8.18409492 6.66666667,8 L6.66666667,4.66666667 C6.66666667,4.48257175 6.81590508,4.33333333 7,4.33333333 L12.3333333,4.33333333 C12.5174282,4.33333333 12.6666667,4.48257175 12.6666667,4.66666667 L12.6666667,8 C12.6666667,8.18409492 12.5174282,8.33333333 12.3333333,8.33333333 L10,8.33333333 L10,19.6666667 Z M3.33333333,19.6666667 C3.33333333,19.8507616 3.18409492,20 3,20 C2.81590508,20 2.66666667,19.8507616 2.66666667,19.6666667 L2.66666667,15.6666667 L0.333333333,15.6666667 C0.149238417,15.6666667 0,15.5174282 0,15.3333333 L0,12 C0,11.8159051 0.149238417,11.6666667 0.333333333,11.6666667 L5.66666667,11.6666667 C5.85076158,11.6666667 6,11.8159051 6,12 L6,15.3333333 C6,15.5174282 5.85076158,15.6666667 5.66666667,15.6666667 L3.33333333,15.6666667 L3.33333333,19.6666667 Z M3.33333333,10 C3.33333333,10.1840949 3.18409492,10.3333333 3,10.3333333 C2.81590508,10.3333333 2.66666667,10.1840949 2.66666667,10 L2.66666667,0.333333333 C2.66666667,0.149238417 2.81590508,0 3,0 C3.18409492,0 3.33333333,0.149238417 3.33333333,0.333333333 L3.33333333,10 Z M16,0.333333333 C16,0.149238417 16.1492384,0 16.3333333,0 C16.5174282,0 16.6666667,0.149238417 16.6666667,0.333333333 L16.6666667,10 C16.6666667,10.1840949 16.5174282,10.3333333 16.3333333,10.3333333 C16.1492384,10.3333333 16,10.1840949 16,10 L16,0.333333333 Z M13.3333333,12 C13.3333333,11.8159051 13.4825718,11.6666667 13.6666667,11.6666667 L19,11.6666667 C19.1840949,11.6666667 19.3333333,11.8159051 19.3333333,12 L19.3333333,15.3333333 C19.3333333,15.5174282 19.1840949,15.6666667 19,15.6666667 L16.6666667,15.6666667 L16.6666667,19.6666667 C16.6666667,19.8507616 16.5174282,20 16.3333333,20 C16.1492384,20 16,19.8507616 16,19.6666667 L16,15.6666667 L13.6666667,15.6666667 C13.4825718,15.6666667 13.3333333,15.5174282 13.3333333,15.3333333 L13.3333333,12 Z" id="Path-2"></path>
                </g>
            </g>
        </g>
    </g>
</svg>